<?xml version="1.0" encoding="UTF-8"?>
<!DOCTYPE svg PUBLIC "-//W3C//DTD SVG 1.1//EN" "http://www.w3.org/Graphics/SVG/1.1/DTD/svg11.dtd">
<svg xmlns="http://www.w3.org/2000/svg" version="1.1" width="512px" height="512px" style="shape-rendering:geometricPrecision; text-rendering:geometricPrecision; image-rendering:optimizeQuality; fill-rule:evenodd; clip-rule:evenodd" xmlns:xlink="http://www.w3.org/1999/xlink">
<g><path style="opacity:0.974" fill="#010101" d="M 298.5,-0.5 C 360.833,-0.5 423.167,-0.5 485.5,-0.5C 498.5,3.83333 507.167,12.5 511.5,25.5C 511.5,70.8333 511.5,116.167 511.5,161.5C 507.241,174.923 498.241,183.423 484.5,187C 460.167,187.333 435.833,187.667 411.5,188C 399.332,195.585 386.999,202.918 374.5,210C 409.105,267.227 418.271,328.393 402,393.5C 387.54,442.292 356.707,476.125 309.5,495C 284.426,503.913 258.76,509.413 232.5,511.5C 213.833,511.5 195.167,511.5 176.5,511.5C 152.08,509.449 128.08,504.616 104.5,497C 53.3748,478.876 20.5414,443.709 6,391.5C 3.27221,379.455 1.10555,367.455 -0.5,355.5C -0.5,339.833 -0.5,324.167 -0.5,308.5C 4.52294,263.463 21.3563,223.463 50,188.5C 50.4999,170.503 50.6666,152.503 50.5,134.5C 41.8522,132.017 36.3522,126.351 34,117.5C 32.0092,94.4914 42.5092,83.6581 65.5,85C 83.7136,92.2697 89.2136,105.103 82,123.5C 78.9223,128.411 74.7557,132.078 69.5,134.5C 68.3342,145.819 68.1675,157.152 69,168.5C 121.429,125.1 181.263,109.933 248.5,123C 256.604,124.869 264.604,127.036 272.5,129.5C 272.333,94.8317 272.5,60.1651 273,25.5C 277.017,12.3175 285.517,3.65084 298.5,-0.5 Z"/></g>
<g><path style="opacity:1" fill="#fcdc00" d="M 471.5,16.5 C 474.392,20.3319 476.226,24.6653 477,29.5C 477.667,72.5 477.667,115.5 477,158.5C 475.819,162.363 473.986,165.863 471.5,169C 450.329,169.168 429.329,169.668 408.5,170.5C 383.022,184.494 357.855,199.161 333,214.5C 332.667,204.167 332.333,193.833 332,183.5C 330.28,178.449 327.114,174.616 322.5,172C 315.913,170.788 309.246,170.121 302.5,170C 296.333,167.833 292.167,163.667 290,157.5C 289.333,114.5 289.333,71.5 290,28.5C 292.5,23.3333 296.333,19.5 301.5,17C 358.166,16.5 414.832,16.3333 471.5,16.5 Z"/></g>
<g><path style="opacity:1" fill="#fabe07" d="M 471.5,16.5 C 482.045,14.855 489.545,18.855 494,28.5C 494.984,72.5591 494.651,116.559 493,160.5C 490.382,165.116 486.549,168.283 481.5,170C 457.169,170.5 432.836,170.667 408.5,170.5C 429.329,169.668 450.329,169.168 471.5,169C 473.986,165.863 475.819,162.363 477,158.5C 477.667,115.5 477.667,72.5 477,29.5C 476.226,24.6653 474.392,20.3319 471.5,16.5 Z"/></g>
<g><path style="opacity:1" fill="#050300" d="M 321.5,50.5 C 368.501,50.3333 415.501,50.5 462.5,51C 468.543,53.8844 470.043,58.3844 467,64.5C 466.097,65.7014 464.931,66.5348 463.5,67C 415.833,67.6667 368.167,67.6667 320.5,67C 315.931,64.4586 314.431,60.6253 316,55.5C 317.73,53.5981 319.563,51.9314 321.5,50.5 Z"/></g>
<g><path style="opacity:1" fill="#080600" d="M 321.5,84.5 C 337.17,84.3334 352.837,84.5001 368.5,85C 373.945,87.1102 375.778,90.9436 374,96.5C 373.167,98.6667 371.667,100.167 369.5,101C 353.167,101.667 336.833,101.667 320.5,101C 315.931,98.4586 314.431,94.6253 316,89.5C 317.73,87.5981 319.563,85.9314 321.5,84.5 Z"/></g>
<g><path style="opacity:1" fill="#01a2ea" d="M 56.5,101.5 C 64.5228,101.683 68.0228,105.683 67,113.5C 64.5647,118.224 60.7314,119.724 55.5,118C 48.7133,112.18 49.0466,106.68 56.5,101.5 Z"/></g>
<g><path style="opacity:1" fill="#010000" d="M 319.5,119.5 C 359.168,119.333 398.835,119.5 438.5,120C 445.059,124.916 445.059,129.916 438.5,135C 398.833,135.667 359.167,135.667 319.5,135C 314.197,129.76 314.197,124.594 319.5,119.5 Z"/></g>
<g><path style="opacity:1" fill="#f3f3f3" d="M 346.5,226.5 C 347.496,226.414 348.329,226.748 349,227.5C 359.855,248.065 367.521,269.732 372,292.5C 372.815,297.352 372.648,302.019 371.5,306.5C 357.55,261.731 327.216,236.231 280.5,230C 229.5,229.333 178.5,229.333 127.5,230C 79.7409,236.63 49.2409,263.13 36,309.5C 28.322,357.288 44.4887,394.455 84.5,421C 96.139,427.324 108.472,431.657 121.5,434C 175.833,434.667 230.167,434.667 284.5,434C 330.782,426.216 360.116,399.716 372.5,354.5C 370.147,412.853 342.814,455.187 290.5,481.5C 289.702,481.957 289.369,482.624 289.5,483.5C 240.249,495.744 190.582,497.577 140.5,489C 62.939,473.046 21.7723,425.546 17,346.5C 12.7454,275.862 37.5787,218.029 91.5,173C 147.096,133.797 207.096,125.63 271.5,148.5C 273.662,175.664 288.329,188.664 315.5,187.5C 315.333,198.505 315.5,209.505 316,220.5C 320.318,229.742 327.485,233.242 337.5,231C 340.527,229.487 343.527,227.987 346.5,226.5 Z"/></g>
<g><path style="opacity:1" fill="#070707" d="M 192.5,170.5 C 200.507,170.334 208.507,170.5 216.5,171C 221.568,173.983 222.735,178.149 220,183.5C 218.681,185.487 216.848,186.654 214.5,187C 207.5,187.667 200.5,187.667 193.5,187C 185.937,181.827 185.604,176.327 192.5,170.5 Z"/></g>
<g><path style="opacity:1" fill="#060606" d="M 176.5,195.5 C 194.836,195.333 213.17,195.5 231.5,196C 238.764,198.961 240.264,203.794 236,210.5C 235.25,211.126 234.416,211.626 233.5,212C 214.167,212.667 194.833,212.667 175.5,212C 170.931,209.459 169.431,205.625 171,200.5C 172.73,198.598 174.563,196.931 176.5,195.5 Z"/></g>
<g><path style="opacity:1" fill="#ccd5d9" d="M 289.5,483.5 C 289.369,482.624 289.702,481.957 290.5,481.5C 342.814,455.187 370.147,412.853 372.5,354.5C 375.468,338.393 375.135,322.393 371.5,306.5C 372.648,302.019 372.815,297.352 372,292.5C 367.521,269.732 359.855,248.065 349,227.5C 348.329,226.748 347.496,226.414 346.5,226.5C 350.517,223.733 354.684,221.066 359,218.5C 391.234,270.24 400.234,325.907 386,385.5C 376.639,422.111 355.806,449.945 323.5,469C 312.506,474.717 301.173,479.551 289.5,483.5 Z"/></g>
<g><path style="opacity:1" fill="#030404" d="M 371.5,306.5 C 375.135,322.393 375.468,338.393 372.5,354.5C 360.116,399.716 330.782,426.216 284.5,434C 230.167,434.667 175.833,434.667 121.5,434C 108.472,431.657 96.139,427.324 84.5,421C 44.4887,394.455 28.322,357.288 36,309.5C 49.2409,263.13 79.7409,236.63 127.5,230C 178.5,229.333 229.5,229.333 280.5,230C 327.216,236.231 357.55,261.731 371.5,306.5 Z"/></g>
<g><path style="opacity:1" fill="#5f7c8a" d="M 292.5,249.5 C 329.584,273.013 345.084,306.68 339,350.5C 332.908,378.375 317.741,399.708 293.5,414.5C 289.584,415.645 285.584,416.478 281.5,417C 228.833,417.667 176.167,417.667 123.5,417C 87.2598,409.427 63.7598,387.927 53,352.5C 46.0458,316.691 56.5458,287.191 84.5,264C 97.8709,254.153 112.871,248.486 129.5,247C 179.167,246.333 228.833,246.333 278.5,247C 283.276,247.346 287.942,248.179 292.5,249.5 Z"/></g>
<g><path style="opacity:1" fill="#36464e" d="M 292.5,249.5 C 333.117,261.572 354.783,288.739 357.5,331C 356.497,368.352 339.164,395.019 305.5,411C 301.57,412.477 297.57,413.644 293.5,414.5C 317.741,399.708 332.908,378.375 339,350.5C 345.084,306.68 329.584,273.013 292.5,249.5 Z"/></g>
<g><path style="opacity:1" fill="#010202" d="M 103.5,289.5 C 123.993,288.155 137.493,297.155 144,316.5C 144.805,345.695 130.638,359.195 101.5,357C 82.6746,349.522 74.5079,335.689 77,315.5C 81.6376,302.453 90.4709,293.787 103.5,289.5 Z"/></g>
<g><path style="opacity:1" fill="#010203" d="M 291.5,289.5 C 317.558,289.063 331.058,301.73 332,327.5C 326.945,350.195 312.779,360.028 289.5,357C 266.614,347.347 259.448,330.847 268,307.5C 273.696,298.628 281.53,292.628 291.5,289.5 Z"/></g>
<g><path style="opacity:1" fill="#00b9d0" d="M 106.5,306.5 C 121.171,306.667 128.004,314.001 127,328.5C 121.403,340.367 112.57,343.534 100.5,338C 90.868,327.984 91.2013,318.317 101.5,309C 103.315,308.243 104.981,307.41 106.5,306.5 Z"/></g>
<g><path style="opacity:1" fill="#00b8d0" d="M 293.5,306.5 C 311.369,306.85 317.869,315.517 313,332.5C 306.363,340.755 298.196,342.588 288.5,338C 281.567,331.791 279.733,324.291 283,315.5C 285.84,311.673 289.34,308.673 293.5,306.5 Z"/></g>
<g><path style="opacity:1" fill="#030304" d="M 176.5,366.5 C 178.199,366.34 179.866,366.506 181.5,367C 192.078,374.619 203.745,376.619 216.5,373C 220.764,370.539 225.097,368.372 229.5,366.5C 237.205,367.915 239.705,372.248 237,379.5C 225.807,389.549 212.64,393.716 197.5,392C 187.835,390.671 179.335,386.837 172,380.5C 169.227,374.395 170.727,369.728 176.5,366.5 Z"/></g>
</svg>
